<?xml version="1.0" encoding="UTF-8" standalone="no"?>
<svg
   xmlns:dc="http://purl.org/dc/elements/1.1/"
   xmlns:cc="http://creativecommons.org/ns#"
   xmlns:rdf="http://www.w3.org/1999/02/22-rdf-syntax-ns#"
   xmlns:svg="http://www.w3.org/2000/svg"
   xmlns="http://www.w3.org/2000/svg"
   xmlns:sodipodi="http://sodipodi.sourceforge.net/DTD/sodipodi-0.dtd"
   xmlns:inkscape="http://www.inkscape.org/namespaces/inkscape"
   width="297mm"
   height="210mm"
   viewBox="0 0 297 210"
   version="1.1"
   id="svg8"
   inkscape:version="1.0.1 (3bc2e813f5, 2020-09-07)"
   sodipodi:docname="Chopped right 2.svg">
  <defs
     id="defs2">
    <clipPath
       clipPathUnits="userSpaceOnUse"
       id="clipPath1725">
      <rect
         style="fill:#551b3d;stroke-width:1.51181;paint-order:markers stroke fill"
         id="rect1727"
         width="942.85712"
         height="675.71429"
         x="642.85712"
         y="62.857143"
         transform="matrix(0.26458333,0,0,0.26458333,-18.239316,-8.1814301)" />
    </clipPath>
  </defs>
  <sodipodi:namedview
     id="base"
     pagecolor="#a8a8a8"
     bordercolor="#666666"
     borderopacity="1.0"
     inkscape:pageopacity="0"
     inkscape:pageshadow="2"
     inkscape:zoom="0.7"
     inkscape:cx="575.17528"
     inkscape:cy="487.76079"
     inkscape:document-units="mm"
     inkscape:current-layer="layer1"
     inkscape:document-rotation="0"
     showgrid="false"
     inkscape:window-width="1920"
     inkscape:window-height="1017"
     inkscape:window-x="1912"
     inkscape:window-y="-8"
     inkscape:window-maximized="1"
     inkscape:snap-bbox="true"
     inkscape:snap-bbox-midpoints="true"
     inkscape:bbox-nodes="true"
     inkscape:bbox-paths="true"
     inkscape:snap-bbox-edge-midpoints="true"
     inkscape:object-paths="true"
     inkscape:snap-intersection-paths="true"
     inkscape:object-nodes="true"
     inkscape:snap-smooth-nodes="true"
     inkscape:snap-midpoints="true"
     showguides="true"
     inkscape:guide-bbox="true" />
  <metadata
     id="metadata5">
    <rdf:RDF>
      <cc:Work
         rdf:about="">
        <dc:format>image/svg+xml</dc:format>
        <dc:type
           rdf:resource="http://purl.org/dc/dcmitype/StillImage" />
        <dc:title />
      </cc:Work>
    </rdf:RDF>
  </metadata>
  <g
     inkscape:label="Layer 1"
     inkscape:groupmode="layer"
     id="layer1">
    <g
       id="g1093"
       transform="translate(-63.775126,0.99982797)"
       style="display:inline;opacity:1">
      <g
         id="g1568">
        <g
           id="g1527">
          <g
             id="g966">
            <g
               id="g1448"
               style="display:inline;opacity:1;fill:#bd0070;fill-opacity:1">
              <path
                 id="rect1179"
                 style="opacity:1;fill:#bd0070;fill-opacity:1;stroke:none;stroke-width:55.233;stroke-miterlimit:4;stroke-dasharray:none;stroke-opacity:1;paint-order:markers stroke fill"
                 d="m 573.96875,170.07812 v 453.54297 h 61.03906 350.36328 15.11721 v 0.002 h 30.2363 v -0.002 -30.23632 -423.30665 H 635.00781 Z m 31.54883,21.73243 a 6.6141716,6.6141716 0 0 1 0.01,0 6.6141716,6.6141716 0 0 1 6.61328,6.61328 6.6141716,6.6141716 0 0 1 -6.61328,6.61523 6.6141716,6.6141716 0 0 1 -6.61523,-6.61523 6.6141716,6.6141716 0 0 1 6.60547,-6.61328 z m 396.85152,0 a 6.6141716,6.6141716 0 0 1 0.01,0 6.6141716,6.6141716 0 0 1 6.6133,6.61328 6.6141716,6.6141716 0 0 1 -6.6133,6.61523 6.6141716,6.6141716 0 0 1 -6.61523,-6.61523 6.6141716,6.6141716 0 0 1 6.60543,-6.61328 z m 13.1856,3.96875 a 3.7795275,3.7795275 0 0 1 0.051,0 3.7795275,3.7795275 0 0 1 3.7793,3.77929 3.7795275,3.7795275 0 0 1 -3.7793,3.7793 3.7795275,3.7795275 0 0 1 -3.7793,-3.7793 3.7795275,3.7795275 0 0 1 3.7285,-3.77929 z m -380.54689,12.09375 h 350.36328 v 7.56054 h 15.11721 V 559.74805 H 635.00781 Z M 1015.5547,539.7168 a 3.7795276,3.7795276 0 0 1 0.051,0 3.7795276,3.7795276 0 0 1 3.7793,3.77929 3.7795276,3.7795276 0 0 1 -3.7793,3.7793 3.7795276,3.7795276 0 0 1 -3.7793,-3.7793 3.7795276,3.7795276 0 0 1 3.7285,-3.77929 z m -410.03712,48.94531 a 6.6141716,6.6141716 0 0 1 0.01,0 6.6141716,6.6141716 0 0 1 6.61328,6.61328 6.6141716,6.6141716 0 0 1 -6.61328,6.61523 6.6141716,6.6141716 0 0 1 -6.61523,-6.61523 6.6141716,6.6141716 0 0 1 6.60547,-6.61328 z m 396.85152,0 a 6.6141716,6.6141716 0 0 1 0.01,0 6.6141716,6.6141716 0 0 1 6.6133,6.61328 6.6141716,6.6141716 0 0 1 -6.6133,6.61523 6.6141716,6.6141716 0 0 1 -6.61523,-6.61523 6.6141716,6.6141716 0 0 1 6.60543,-6.61328 z"
                 transform="matrix(0.26458333,0,0,0.26458333,-0.01242909,-0.99988255)" />
            </g>
          </g>
        </g>
      </g>
    </g>
  </g>
</svg>
