<?xml version="1.0" encoding="UTF-8" standalone="no"?>
<svg
   xmlns:dc="http://purl.org/dc/elements/1.1/"
   xmlns:cc="http://creativecommons.org/ns#"
   xmlns:rdf="http://www.w3.org/1999/02/22-rdf-syntax-ns#"
   xmlns:svg="http://www.w3.org/2000/svg"
   xmlns="http://www.w3.org/2000/svg"
   xmlns:sodipodi="http://sodipodi.sourceforge.net/DTD/sodipodi-0.dtd"
   xmlns:inkscape="http://www.inkscape.org/namespaces/inkscape"
   width="297mm"
   height="210mm"
   viewBox="0 0 297 210"
   version="1.1"
   id="svg8"
   inkscape:version="1.0.1 (3bc2e813f5, 2020-09-07)"
   sodipodi:docname="Chopped left.svg">
  <defs
     id="defs2" />
  <sodipodi:namedview
     id="base"
     pagecolor="#a8a8a8"
     bordercolor="#666666"
     borderopacity="1.0"
     inkscape:pageopacity="0"
     inkscape:pageshadow="2"
     inkscape:zoom="0.7"
     inkscape:cx="803.49793"
     inkscape:cy="506.03731"
     inkscape:document-units="mm"
     inkscape:current-layer="layer1"
     inkscape:document-rotation="0"
     showgrid="false"
     inkscape:window-width="1920"
     inkscape:window-height="1017"
     inkscape:window-x="1912"
     inkscape:window-y="-8"
     inkscape:window-maximized="1"
     showguides="true"
     inkscape:guide-bbox="true" />
  <metadata
     id="metadata5">
    <rdf:RDF>
      <cc:Work
         rdf:about="">
        <dc:format>image/svg+xml</dc:format>
        <dc:type
           rdf:resource="http://purl.org/dc/dcmitype/StillImage" />
        <dc:title></dc:title>
      </cc:Work>
    </rdf:RDF>
  </metadata>
  <g
     inkscape:label="Layer 1"
     inkscape:groupmode="layer"
     id="layer1">
    <g
       id="g1093"
       transform="translate(0.01242909,0.99988255)"
       style="display:inline;opacity:1">
      <g
         id="g1568">
        <g
           id="g1527">
          <g
             id="g966">
            <g
               id="g1448"
               style="display:inline;opacity:1;fill:#bd0070;fill-opacity:1">
              <path
                 id="rect1179"
                 style="opacity:1;fill:#bd0070;fill-opacity:1;stroke:none;stroke-width:55.233;stroke-miterlimit:4;stroke-dasharray:none;stroke-opacity:1;paint-order:markers stroke fill"
                 d="m 91.794922,170.07812 v 453.54297 h 0.09375 30.142578 37.88867 361.70117 113.38672 v -63.87304 -351.875 -37.79493 H 521.62109 122.03125 Z m 53.671878,21.73243 a 6.6141716,6.6141716 0 0 1 0.01,0 6.6141716,6.6141716 0 0 1 6.61328,6.61328 6.6141716,6.6141716 0 0 1 -6.61328,6.61523 6.6141716,6.6141716 0 0 1 -6.61523,-6.61523 6.6141716,6.6141716 0 0 1 6.60547,-6.61328 z m 396.93359,0 a 6.6141716,6.6141716 0 0 1 0.01,0 6.6141716,6.6141716 0 0 1 6.61328,6.61328 6.6141716,6.6141716 0 0 1 -6.61328,6.61523 6.6141716,6.6141716 0 0 1 -6.61524,-6.61523 6.6141716,6.6141716 0 0 1 6.60547,-6.61328 z m 63.11719,0 a 6.6141716,6.6141716 0 0 1 0.01,0 6.6141716,6.6141716 0 0 1 6.61328,6.61328 6.6141716,6.6141716 0 0 1 -6.61328,6.61523 6.6141716,6.6141716 0 0 1 -6.61523,-6.61523 6.6141716,6.6141716 0 0 1 6.60547,-6.61328 z m -498.61524,1.13476 a 6.614173,6.614173 0 0 1 0.01,0 6.614173,6.614173 0 0 1 6.61328,6.61328 6.614173,6.614173 0 0 1 -6.61328,6.61524 6.614173,6.614173 0 0 1 -6.61328,-6.61524 6.614173,6.614173 0 0 1 6.60351,-6.61328 z m 53.01758,14.92774 h 361.70117 v 351.875 H 122.10742 v -344.3125 h -0.0762 v -0.002 h 37.88867 z m -53.01758,329.00781 a 6.614173,6.614173 0 0 1 0.01,0 6.614173,6.614173 0 0 1 6.61328,6.61523 6.614173,6.614173 0 0 1 -6.61328,6.61329 6.614173,6.614173 0 0 1 -6.61328,-6.61329 6.614173,6.614173 0 0 1 6.60351,-6.61523 z m 38.56446,51.78125 a 6.6141716,6.6141716 0 0 1 0.01,0 6.6141716,6.6141716 0 0 1 6.61328,6.61328 6.6141716,6.6141716 0 0 1 -6.61328,6.61523 6.6141716,6.6141716 0 0 1 -6.61523,-6.61523 6.6141716,6.6141716 0 0 1 6.60547,-6.61328 z m 396.93359,0 a 6.6141716,6.6141716 0 0 1 0.01,0 6.6141716,6.6141716 0 0 1 6.61328,6.61328 6.6141716,6.6141716 0 0 1 -6.61328,6.61523 6.6141716,6.6141716 0 0 1 -6.61524,-6.61523 6.6141716,6.6141716 0 0 1 6.60547,-6.61328 z m 63.11719,0 a 6.6141716,6.6141716 0 0 1 0.01,0 6.6141716,6.6141716 0 0 1 6.61328,6.61328 6.6141716,6.6141716 0 0 1 -6.61328,6.61523 6.6141716,6.6141716 0 0 1 -6.61523,-6.61523 6.6141716,6.6141716 0 0 1 6.60547,-6.61328 z"
                 transform="matrix(0.26458333,0,0,0.26458333,52.337627,-0.99967255)" />
            </g>
          </g>
        </g>
      </g>
    </g>
  </g>
</svg>
