<?xml version="1.0" encoding="UTF-8" standalone="no"?>
<svg
   xmlns:dc="http://purl.org/dc/elements/1.1/"
   xmlns:cc="http://creativecommons.org/ns#"
   xmlns:rdf="http://www.w3.org/1999/02/22-rdf-syntax-ns#"
   xmlns:svg="http://www.w3.org/2000/svg"
   xmlns="http://www.w3.org/2000/svg"
   xmlns:sodipodi="http://sodipodi.sourceforge.net/DTD/sodipodi-0.dtd"
   xmlns:inkscape="http://www.inkscape.org/namespaces/inkscape"
   width="297mm"
   height="210mm"
   viewBox="0 0 297 210"
   version="1.1"
   id="svg8"
   inkscape:version="1.0.1 (3bc2e813f5, 2020-09-07)"
   sodipodi:docname="Com furos final.svg">
  <defs
     id="defs2">
    <rect
       x="166.50891"
       y="199.43652"
       width="64.919768"
       height="27.876212"
       id="rect1677" />
    <rect
       x="109.27292"
       y="177.53542"
       width="92.075"
       height="46.302083"
       id="rect1671" />
    <rect
       x="89.769345"
       y="168.57738"
       width="107.53423"
       height="20.221726"
       id="rect925" />
    <rect
       x="89.769348"
       y="168.57738"
       width="107.53423"
       height="20.221725"
       id="rect925-5" />
    <rect
       x="89.769348"
       y="168.57738"
       width="107.53423"
       height="20.221725"
       id="rect985" />
    <rect
       x="89.769348"
       y="168.57738"
       width="107.53423"
       height="20.221725"
       id="rect925-5-4" />
    <rect
       x="89.769348"
       y="168.57738"
       width="107.53423"
       height="20.221725"
       id="rect1014" />
  </defs>
  <sodipodi:namedview
     id="base"
     pagecolor="#a8a8a8"
     bordercolor="#666666"
     borderopacity="1.0"
     inkscape:pageopacity="0"
     inkscape:pageshadow="2"
     inkscape:zoom="0.70710678"
     inkscape:cx="433.23513"
     inkscape:cy="311.03572"
     inkscape:document-units="mm"
     inkscape:current-layer="layer2"
     inkscape:document-rotation="0"
     showgrid="false"
     inkscape:window-width="1920"
     inkscape:window-height="1017"
     inkscape:window-x="1912"
     inkscape:window-y="-8"
     inkscape:window-maximized="1"
     inkscape:snap-bbox="true"
     inkscape:bbox-nodes="true"
     inkscape:snap-bbox-midpoints="true"
     showguides="true"
     inkscape:guide-bbox="true"
     inkscape:object-nodes="true"
     inkscape:snap-bbox-edge-midpoints="true"
     inkscape:snap-intersection-paths="true"
     inkscape:snap-smooth-nodes="true"
     inkscape:snap-midpoints="true"
     inkscape:snap-object-midpoints="true"
     inkscape:snap-center="true"
     inkscape:snap-text-baseline="true"
     inkscape:snap-page="true"
     inkscape:snap-grids="true"
     inkscape:object-paths="true"
     inkscape:bbox-paths="true"
     inkscape:snap-nodes="true"
     inkscape:snap-others="false" />
  <metadata
     id="metadata5">
    <rdf:RDF>
      <cc:Work
         rdf:about="">
        <dc:format>image/svg+xml</dc:format>
        <dc:type
           rdf:resource="http://purl.org/dc/dcmitype/StillImage" />
        <dc:title></dc:title>
      </cc:Work>
    </rdf:RDF>
  </metadata>
  <g
     inkscape:groupmode="layer"
     id="layer2"
     inkscape:label="Frame"
     style="display:inline;opacity:1">
    <g
       id="g1093"
       transform="translate(0.01242909,0.99988917)">
      <g
         id="g1568">
        <g
           id="g1527">
          <g
             id="g966">
            <g
               id="g1448"
               style="display:inline;opacity:1;fill:#bd0070;fill-opacity:1">
              <path
                 id="rect1179"
                 style="opacity:1;fill:#bd0070;fill-opacity:1;stroke:none;stroke-width:55.233;stroke-miterlimit:4;stroke-dasharray:none;stroke-opacity:1;paint-order:markers stroke fill"
                 d="M 91.748047,166.29883 V 619.8418 h 0.09375 30.142583 37.88867 361.70117 113.38672 350.36328 15.11718 v 0.002 h 30.2363 v -0.002 -30.23633 -423.30664 H 634.96094 521.57422 121.98438 Z m 53.671873,21.73242 a 6.6141717,6.6141717 0 0 1 0.01,0 6.6141717,6.6141717 0 0 1 6.61328,6.61328 6.6141717,6.6141717 0 0 1 -6.61328,6.61524 6.6141717,6.6141717 0 0 1 -6.61524,-6.61524 6.6141717,6.6141717 0 0 1 6.60547,-6.61328 z m 396.9336,0 a 6.6141717,6.6141717 0 0 1 0.01,0 6.6141717,6.6141717 0 0 1 6.61328,6.61328 6.6141717,6.6141717 0 0 1 -6.61328,6.61524 6.6141717,6.6141717 0 0 1 -6.61523,-6.61524 6.6141717,6.6141717 0 0 1 6.60547,-6.61328 z m 63.11718,0 a 6.6141717,6.6141717 0 0 1 0.01,0 6.6141717,6.6141717 0 0 1 6.61328,6.61328 6.6141717,6.6141717 0 0 1 -6.61328,6.61524 6.6141717,6.6141717 0 0 1 -6.61524,-6.61524 6.6141717,6.6141717 0 0 1 6.60547,-6.61328 z m 396.8516,0 a 6.6141717,6.6141717 0 0 1 0.01,0 6.6141717,6.6141717 0 0 1 6.6133,6.61328 6.6141717,6.6141717 0 0 1 -6.6133,6.61524 6.6141717,6.6141717 0 0 1 -6.6152,-6.61524 6.6141717,6.6141717 0 0 1 6.6055,-6.61328 z m -895.46683,1.13477 a 6.6141731,6.6141731 0 0 1 0.01,0 6.6141731,6.6141731 0 0 1 6.61329,6.61328 6.6141731,6.6141731 0 0 1 -6.61329,6.61523 6.6141731,6.6141731 0 0 1 -6.61328,-6.61523 6.6141731,6.6141731 0 0 1 6.60352,-6.61328 z M 1015.5078,192 a 3.7795275,3.7795275 0 0 1 0.051,0 3.7795275,3.7795275 0 0 1 3.7793,3.7793 3.7795275,3.7795275 0 0 1 -3.7793,3.77929 3.7795275,3.7795275 0 0 1 -3.7793,-3.77929 3.7795275,3.7795275 0 0 1 3.7285,-3.7793 z m -855.63475,12.09375 h 361.70117 v 351.875 H 122.06055 v -344.3125 h -0.0762 v -0.002 h 37.88867 z m 475.08789,0 h 350.36328 v 7.56055 h 15.11718 V 555.96875 H 634.96094 Z M 106.85547,533.10156 a 6.6141731,6.6141731 0 0 1 0.01,0 6.6141731,6.6141731 0 0 1 6.61329,6.61524 6.6141731,6.6141731 0 0 1 -6.61329,6.61328 6.6141731,6.6141731 0 0 1 -6.61328,-6.61328 6.6141731,6.6141731 0 0 1 6.60352,-6.61524 z M 1018.7031,535 a 5.669291,5.669291 0 0 1 0.1543,0.10547 A 5.6698959,5.6698959 0 0 0 1018.7031,535 Z m -3.1953,0.9375 a 3.7795276,3.7795276 0 0 1 0.051,0 3.7795276,3.7795276 0 0 1 3.7793,3.7793 3.7795276,3.7795276 0 0 1 -3.7793,3.77929 3.7795276,3.7795276 0 0 1 -3.7793,-3.77929 3.7795276,3.7795276 0 0 1 3.7285,-3.7793 z m -4.5605,0.48047 a 5.6698959,5.6698959 0 0 0 -0.1055,0.1543 5.669291,5.669291 0 0 1 0.1055,-0.1543 z m 9.3281,6.44336 a 5.669291,5.669291 0 0 1 -0.1055,0.15429 5.6698959,5.6698959 0 0 0 0.1055,-0.15429 z m -8.0156,1.46679 a 5.6698959,5.6698959 0 0 0 0.1543,0.10547 5.669291,5.669291 0 0 1 -0.1543,-0.10547 z m -866.83988,40.55469 a 6.6141717,6.6141717 0 0 1 0.01,0 6.6141717,6.6141717 0 0 1 6.61328,6.61328 6.6141717,6.6141717 0 0 1 -6.61328,6.61524 6.6141717,6.6141717 0 0 1 -6.61524,-6.61524 6.6141717,6.6141717 0 0 1 6.60547,-6.61328 z m 396.9336,0 a 6.6141717,6.6141717 0 0 1 0.01,0 6.6141717,6.6141717 0 0 1 6.61328,6.61328 6.6141717,6.6141717 0 0 1 -6.61328,6.61524 6.6141717,6.6141717 0 0 1 -6.61523,-6.61524 6.6141717,6.6141717 0 0 1 6.60547,-6.61328 z m 63.11718,0 a 6.6141717,6.6141717 0 0 1 0.01,0 6.6141717,6.6141717 0 0 1 6.61328,6.61328 6.6141717,6.6141717 0 0 1 -6.61328,6.61524 6.6141717,6.6141717 0 0 1 -6.61524,-6.61524 6.6141717,6.6141717 0 0 1 6.60547,-6.61328 z m 396.8516,0 a 6.6141717,6.6141717 0 0 1 0.01,0 6.6141717,6.6141717 0 0 1 6.6133,6.61328 6.6141717,6.6141717 0 0 1 -6.6133,6.61524 6.6141717,6.6141717 0 0 1 -6.6152,-6.61524 6.6141717,6.6141717 0 0 1 6.6055,-6.61328 z"
                 transform="scale(0.26458333)" />
            </g>
          </g>
        </g>
      </g>
    </g>
  </g>
  <g
     inkscape:groupmode="layer"
     id="layer5"
     inkscape:label="Heatsink"
     style="display:inline;opacity:0.663399">
    <g
       id="g1307"
       style="fill:#ff0015;fill-opacity:1" />
    <g
       id="g969"
       transform="translate(-1.0596597,0.99988917)">
      <g
         id="g1001">
        <g
           id="g1161"
           transform="translate(1.0500668,-8.9001023)"
           style="opacity:1">
          <g
             id="g1128" />
          <g
             id="g1410">
            <g
               id="g932"
               transform="translate(-7.1583524e-8,-4.9244636e-4)"
               style="display:inline">
              <path
                 id="rect917"
                 style="fill:#25004e;fill-opacity:1;stroke:none;stroke-width:30.2362;stroke-miterlimit:4;stroke-dasharray:none;stroke-opacity:1;paint-order:markers fill stroke"
                 transform="matrix(0.26458333,0,0,25.504654,-39.431522,-17363.134)"
                 d="M 267.14285,682.85712 H 1153.442 v 4.08553 H 267.14285 Z" />
            </g>
            <path
               id="rect939"
               style="display:inline;fill:#474747;fill-opacity:1;stroke:none;stroke-width:1.51181;stroke-miterlimit:4;stroke-dasharray:none;stroke-opacity:1;paint-order:markers fill stroke"
               transform="matrix(0.26458333,0,0,0.26458333,-11.5131,-159.04473)"
               d="M 161.6244,801.05096 H 569.43544 V 1194.8777 H 161.6244 Z" />
            <path
               id="rect939-8"
               style="display:inline;fill:#474747;fill-opacity:1;stroke:none;stroke-width:1.51181;stroke-miterlimit:4;stroke-dasharray:none;stroke-opacity:1;paint-order:markers fill stroke"
               transform="matrix(0.24226907,0,0,0.26458333,127.79342,-159.04473)"
               d="M 161.6244,801.05096 H 569.43544 V 1194.8777 H 161.6244 Z" />
            <g
               aria-label="HEATSINK 1"
               transform="translate(-25.790363,-68.623123)"
               id="text923-7"
               style="font-style:normal;font-variant:normal;font-weight:normal;font-stretch:normal;font-size:10.5833px;line-height:1.25;font-family:Anton;-inkscape-font-specification:Anton;white-space:pre;shape-inside:url(#rect925-5);display:inline;fill:#000000;fill-opacity:1;stroke:#ffffff;stroke-width:0.4;stroke-miterlimit:4;stroke-dasharray:none;stroke-opacity:1">
              <path
                 d="m 90.172606,178.17063 v -9.09502 h 1.80867 v 3.25044 h 0.857826 v -3.25044 h 1.808669 v 9.09502 h -1.808669 v -4.12376 h -0.857826 v 4.12376 z"
                 id="path1077" />
              <path
                 d="m 95.453921,178.17063 v -9.09502 h 3.638009 v 1.75699 h -1.787999 v 1.7725 h 1.715652 v 1.71049 h -1.715652 v 2.08255 h 1.906854 v 1.77249 z"
                 id="path1079" />
              <path
                 d="m 99.562184,178.17063 0.878496,-9.09502 h 3.08507 l 0.863,9.09502 h -1.72082 l -0.12919,-1.4676 h -1.09554 l -0.11369,1.4676 z m 2.010206,-2.9197 h 0.82682 l -0.39791,-4.62503 h -0.0827 z"
                 id="path1081" />
              <path
                 d="m 105.5928,178.17063 v -7.34836 h -1.08003 v -1.74666 h 3.97907 v 1.74666 h -1.08003 v 7.34836 z"
                 id="path1083" />
              <path
                 d="m 111.15834,178.25332 q -1.2454,0 -1.79834,-0.62012 -0.54776,-0.62011 -0.54776,-1.97403 v -0.88883 h 1.79833 v 1.13687 q 0,0.31523 0.093,0.4961 0.0982,0.1757 0.33589,0.1757 0.24805,0 0.34107,-0.1447 0.0982,-0.14469 0.0982,-0.47542 0,-0.41858 -0.0827,-0.69763 -0.0827,-0.28422 -0.28939,-0.53743 -0.20154,-0.25838 -0.56327,-0.59945 l -0.81648,-0.77514 q -0.91467,-0.86299 -0.91467,-1.97403 0,-1.16272 0.53743,-1.7725 0.5426,-0.60978 1.56579,-0.60978 1.25057,0 1.7725,0.66662 0.52709,0.66663 0.52709,2.02571 h -1.85001 v -0.62528 q 0,-0.18603 -0.10852,-0.28939 -0.10335,-0.10335 -0.28422,-0.10335 -0.21704,0 -0.32039,0.12402 -0.0982,0.11886 -0.0982,0.31006 0,0.1912 0.10335,0.41341 0.10335,0.22221 0.40824,0.5116 l 1.04903,1.00768 q 0.31522,0.29973 0.57877,0.63562 0.26355,0.33073 0.42375,0.77515 0.1602,0.43924 0.1602,1.07486 0,1.28157 -0.47543,2.01021 -0.47025,0.72347 -1.6433,0.72347 z"
                 id="path1085" />
              <path
                 d="m 113.799,178.17063 v -9.09502 h 1.75699 v 9.09502 z"
                 id="path1087" />
              <path
                 d="m 116.27946,178.17063 v -9.09502 h 1.87068 l 0.83715,4.35631 v -4.35631 h 1.757 v 9.09502 h -1.77767 l -0.9095,-4.54751 v 4.54751 z"
                 id="path1089" />
              <path
                 d="m 121.55043,178.17063 v -9.09502 h 1.79834 v 3.64318 l 0.84749,-3.64318 h 1.82934 l -1.01802,4.16511 1.22989,4.92991 h -1.88618 l -0.99219,-4.40281 v 4.40281 z"
                 id="path1091" />
              <path
                 d="m 129.88065,178.17063 v -7.0073 q -0.18604,0.22221 -0.5116,0.36174 -0.32556,0.13436 -0.61494,0.13436 v -1.45211 q 0.27388,-0.0413 0.58911,-0.1757 0.31522,-0.13952 0.58394,-0.37723 0.27388,-0.24288 0.41858,-0.58395 h 1.46243 v 9.10019 z"
                 id="path1093" />
            </g>
            <text
               xml:space="preserve"
               id="text923-7-1"
               style="font-style:normal;font-variant:normal;font-weight:normal;font-stretch:normal;font-size:10.5833px;line-height:1.25;font-family:Anton;-inkscape-font-specification:Anton;white-space:pre;shape-inside:url(#rect925-5-4);display:inline;fill:#000000;fill-opacity:1;stroke:#ffffff;stroke-width:0.4;stroke-miterlimit:4;stroke-dasharray:none;stroke-opacity:1;"
               transform="translate(104.40103,-68.623123)"><tspan
                 x="89.769531"
                 y="178.17063"><tspan>HEATSINK 2
</tspan></tspan></text>
            <g
               aria-label="HEATSINK 1"
               transform="translate(39.822109,5.7644289)"
               id="text923-7-3"
               style="font-style:normal;font-variant:normal;font-weight:normal;font-stretch:normal;font-size:10.5833px;line-height:1.25;font-family:Anton;-inkscape-font-specification:Anton;white-space:pre;shape-inside:url(#rect925-5);display:inline;opacity:1;fill:#000000;fill-opacity:1;stroke:#ffffff;stroke-width:0.4;stroke-miterlimit:4;stroke-dasharray:none;stroke-opacity:1" />
            <g
               aria-label="HEATSINK 1"
               transform="translate(21.433568,3.1185956)"
               id="text923-7-7"
               style="font-style:normal;font-variant:normal;font-weight:normal;font-stretch:normal;font-size:10.5833px;line-height:1.25;font-family:Anton;-inkscape-font-specification:Anton;white-space:pre;shape-inside:url(#rect925-5);display:inline;opacity:1;fill:#000000;fill-opacity:1;stroke:#ffffff;stroke-width:0.4;stroke-miterlimit:4;stroke-dasharray:none;stroke-opacity:1">
              <text
                 xml:space="preserve"
                 style="font-style:normal;font-weight:normal;font-size:40px;line-height:1.25;font-family:sans-serif;fill:#000000;fill-opacity:1;stroke:none"
                 x="397"
                 y="718"
                 id="text1663"
                 transform="matrix(0.26458333,0,0,0.26458333,-21.43357,-3.118541)"><tspan
                   sodipodi:role="line"
                   id="tspan1661"
                   x="397"
                   y="718" /></text>
              <text
                 xml:space="preserve"
                 style="font-style:normal;font-weight:normal;font-size:40px;line-height:1.25;font-family:sans-serif;fill:#000000;fill-opacity:1;stroke:none"
                 x="383"
                 y="661"
                 id="text1667"
                 transform="matrix(0.26458333,0,0,0.26458333,-21.43357,-3.118541)"><tspan
                   sodipodi:role="line"
                   id="tspan1665"
                   x="383"
                   y="661" /></text>
            </g>
          </g>
        </g>
        <g
           id="g1683"
           transform="translate(-1.1500458,-6.7000829)">
          <text
             xml:space="preserve"
             id="text1669"
             style="font-style:normal;font-weight:normal;font-size:10.5833px;line-height:1.25;font-family:sans-serif;white-space:pre;shape-inside:url(#rect1671);fill:#000000;fill-opacity:1;stroke:none;stroke-width:0.4;stroke-miterlimit:4;stroke-dasharray:none;"
             transform="rotate(90,180.38865,155.19151)"><tspan
               x="109.27344"
               y="187.12767"><tspan
                 style="font-style:normal;font-variant:normal;font-weight:normal;font-stretch:normal;font-family:Anton;-inkscape-font-specification:Anton;stroke:#ffffff;stroke-width:0.4;stroke-miterlimit:4;stroke-dasharray:none;stroke-opacity:1">VOID AREA</tspan></tspan></text>
        </g>
      </g>
    </g>
    <text
       xml:space="preserve"
       id="text1675"
       style="font-style:normal;font-weight:normal;font-size:10.5833px;line-height:1.25;font-family:sans-serif;white-space:pre;shape-inside:url(#rect1677);fill:#000000;fill-opacity:1;stroke:none;stroke-width:0.7;stroke-miterlimit:4;stroke-dasharray:none;" />
  </g>
  <g
     inkscape:groupmode="layer"
     id="layer6"
     inkscape:label="Fans"
     style="display:inline">
    <path
       id="rect1270"
       style="display:inline;opacity:0.669935;fill:#ffb566;fill-opacity:1;stroke:none;stroke-width:48;stroke-miterlimit:4;stroke-dasharray:none;stroke-opacity:1;paint-order:markers stroke fill"
       d="M 247.23633,955 C 230.48548,955 217,968.48548 217,985.23633 v 393.07027 c 0,16.7509 13.48548,30.2364 30.23633,30.2364 h 393.07031 c 16.75086,0 30.23633,-13.4855 30.23633,-30.2364 V 985.23633 C 670.54297,968.48548 657.0575,955 640.30664,955 Z m -1.97266,20.78711 a 7.5590552,7.5590552 0 0 1 0.082,0 7.5590552,7.5590552 0 0 1 7.56055,7.55859 7.5590552,7.5590552 0 0 1 -7.56055,7.56055 7.5590552,7.5590552 0 0 1 -7.55859,-7.56055 7.5590552,7.5590552 0 0 1 7.47656,-7.55859 z m 396.84961,0 a 7.5590551,7.5590551 0 0 1 0.084,0 7.5590551,7.5590551 0 0 1 7.55859,7.55859 7.5590551,7.5590551 0 0 1 -7.55859,7.56055 7.5590551,7.5590551 0 0 1 -7.5586,-7.56055 7.5590551,7.5590551 0 0 1 7.47461,-7.55859 z M 245.26367,1372.6387 a 7.5590552,7.5590552 0 0 1 0.082,0 7.5590552,7.5590552 0 0 1 7.56055,7.5586 7.5590552,7.5590552 0 0 1 -7.56055,7.5586 7.5590552,7.5590552 0 0 1 -7.55859,-7.5586 7.5590552,7.5590552 0 0 1 7.47656,-7.5586 z m 396.84961,0 a 7.5590552,7.5590552 0 0 1 0.084,0 7.5590552,7.5590552 0 0 1 7.55859,7.5586 7.5590552,7.5590552 0 0 1 -7.55859,7.5586 7.5590552,7.5590552 0 0 1 -7.5586,-7.5586 7.5590552,7.5590552 0 0 1 7.47461,-7.5586 z"
       transform="matrix(0.26458333,0,0,0.26458333,-26.402063,-207.67711)" />
    <path
       id="rect1270-0"
       style="display:inline;opacity:0.669935;fill:#ffb566;fill-opacity:1;stroke:none;stroke-width:48;stroke-miterlimit:4;stroke-dasharray:none;stroke-opacity:1;paint-order:markers stroke fill"
       d="M 247.23633,955 C 230.48548,955 217,968.48548 217,985.23633 v 393.07027 c 0,16.7509 13.48548,30.2364 30.23633,30.2364 h 393.07031 c 16.75086,0 30.23633,-13.4855 30.23633,-30.2364 V 985.23633 C 670.54297,968.48548 657.0575,955 640.30664,955 Z m -1.97266,20.78711 a 7.5590552,7.5590552 0 0 1 0.082,0 7.5590552,7.5590552 0 0 1 7.56055,7.55859 7.5590552,7.5590552 0 0 1 -7.56055,7.56055 7.5590552,7.5590552 0 0 1 -7.55859,-7.56055 7.5590552,7.5590552 0 0 1 7.47656,-7.55859 z m 396.84961,0 a 7.5590551,7.5590551 0 0 1 0.084,0 7.5590551,7.5590551 0 0 1 7.55859,7.55859 7.5590551,7.5590551 0 0 1 -7.55859,7.56055 7.5590551,7.5590551 0 0 1 -7.5586,-7.56055 7.5590551,7.5590551 0 0 1 7.47461,-7.55859 z M 245.26367,1372.6387 a 7.5590552,7.5590552 0 0 1 0.082,0 7.5590552,7.5590552 0 0 1 7.56055,7.5586 7.5590552,7.5590552 0 0 1 -7.56055,7.5586 7.5590552,7.5590552 0 0 1 -7.55859,-7.5586 7.5590552,7.5590552 0 0 1 7.47656,-7.5586 z m 396.84961,0 a 7.5590552,7.5590552 0 0 1 0.084,0 7.5590552,7.5590552 0 0 1 7.55859,7.5586 7.5590552,7.5590552 0 0 1 -7.55859,7.5586 7.5590552,7.5590552 0 0 1 -7.5586,-7.5586 7.5590552,7.5590552 0 0 1 7.47461,-7.5586 z"
       transform="matrix(0.26458333,0,0,0.26458333,95.297961,-207.67706)" />
  </g>
</svg>
