<?xml version="1.0" encoding="UTF-8" standalone="no"?>
<svg
   xmlns:dc="http://purl.org/dc/elements/1.1/"
   xmlns:cc="http://creativecommons.org/ns#"
   xmlns:rdf="http://www.w3.org/1999/02/22-rdf-syntax-ns#"
   xmlns:svg="http://www.w3.org/2000/svg"
   xmlns="http://www.w3.org/2000/svg"
   xmlns:sodipodi="http://sodipodi.sourceforge.net/DTD/sodipodi-0.dtd"
   xmlns:inkscape="http://www.inkscape.org/namespaces/inkscape"
   width="297mm"
   height="210mm"
   viewBox="0 0 297 210"
   version="1.1"
   id="svg8"
   inkscape:version="1.0.1 (3bc2e813f5, 2020-09-07)"
   sodipodi:docname="Complete frame (no reference layers).svg">
  <defs
     id="defs2" />
  <sodipodi:namedview
     id="base"
     pagecolor="#a8a8a8"
     bordercolor="#666666"
     borderopacity="1.0"
     inkscape:pageopacity="0"
     inkscape:pageshadow="2"
     inkscape:zoom="0.7"
     inkscape:cx="579.45346"
     inkscape:cy="421.42274"
     inkscape:document-units="mm"
     inkscape:current-layer="layer1"
     inkscape:document-rotation="0"
     showgrid="false"
     inkscape:window-width="1920"
     inkscape:window-height="1017"
     inkscape:window-x="1912"
     inkscape:window-y="-8"
     inkscape:window-maximized="1" />
  <metadata
     id="metadata5">
    <rdf:RDF>
      <cc:Work
         rdf:about="">
        <dc:format>image/svg+xml</dc:format>
        <dc:type
           rdf:resource="http://purl.org/dc/dcmitype/StillImage" />
        <dc:title></dc:title>
      </cc:Work>
    </rdf:RDF>
  </metadata>
  <g
     inkscape:label="Layer 1"
     inkscape:groupmode="layer"
     id="layer1">
    <g
       id="g1093"
       transform="translate(0.01242909,0.99988255)"
       style="display:inline;opacity:1">
      <g
         id="g1568">
        <g
           id="g1527">
          <g
             id="g966">
            <g
               id="g1448"
               style="display:inline;opacity:1;fill:#bd0070;fill-opacity:1">
              <path
                 id="rect1179"
                 style="opacity:1;fill:#bd0070;fill-opacity:1;stroke:none;stroke-width:55.233;stroke-miterlimit:4;stroke-dasharray:none;stroke-opacity:1;paint-order:markers stroke fill"
                 d="M 91.748047,166.29883 V 619.8418 h 0.09375 30.142583 37.88867 361.70117 113.38672 350.36328 15.11718 v 0.002 h 30.2363 v -0.002 -30.23633 -423.30664 H 634.96094 521.57422 121.98438 Z m 53.671873,21.73242 a 6.6141717,6.6141717 0 0 1 0.01,0 6.6141717,6.6141717 0 0 1 6.61328,6.61328 6.6141717,6.6141717 0 0 1 -6.61328,6.61524 6.6141717,6.6141717 0 0 1 -6.61524,-6.61524 6.6141717,6.6141717 0 0 1 6.60547,-6.61328 z m 396.9336,0 a 6.6141717,6.6141717 0 0 1 0.01,0 6.6141717,6.6141717 0 0 1 6.61328,6.61328 6.6141717,6.6141717 0 0 1 -6.61328,6.61524 6.6141717,6.6141717 0 0 1 -6.61523,-6.61524 6.6141717,6.6141717 0 0 1 6.60547,-6.61328 z m 63.11718,0 a 6.6141717,6.6141717 0 0 1 0.01,0 6.6141717,6.6141717 0 0 1 6.61328,6.61328 6.6141717,6.6141717 0 0 1 -6.61328,6.61524 6.6141717,6.6141717 0 0 1 -6.61524,-6.61524 6.6141717,6.6141717 0 0 1 6.60547,-6.61328 z m 396.8516,0 a 6.6141717,6.6141717 0 0 1 0.01,0 6.6141717,6.6141717 0 0 1 6.6133,6.61328 6.6141717,6.6141717 0 0 1 -6.6133,6.61524 6.6141717,6.6141717 0 0 1 -6.6152,-6.61524 6.6141717,6.6141717 0 0 1 6.6055,-6.61328 z m -895.46683,1.13477 a 6.6141731,6.6141731 0 0 1 0.01,0 6.6141731,6.6141731 0 0 1 6.61329,6.61328 6.6141731,6.6141731 0 0 1 -6.61329,6.61523 6.6141731,6.6141731 0 0 1 -6.61328,-6.61523 6.6141731,6.6141731 0 0 1 6.60352,-6.61328 z M 1015.5078,192 a 3.7795275,3.7795275 0 0 1 0.051,0 3.7795275,3.7795275 0 0 1 3.7793,3.7793 3.7795275,3.7795275 0 0 1 -3.7793,3.77929 3.7795275,3.7795275 0 0 1 -3.7793,-3.77929 3.7795275,3.7795275 0 0 1 3.7285,-3.7793 z m -855.63475,12.09375 h 361.70117 v 351.875 H 122.06055 v -344.3125 h -0.0762 v -0.002 h 37.88867 z m 475.08789,0 h 350.36328 v 7.56055 h 15.11718 V 555.96875 H 634.96094 Z M 106.85547,533.10156 a 6.6141731,6.6141731 0 0 1 0.01,0 6.6141731,6.6141731 0 0 1 6.61329,6.61524 6.6141731,6.6141731 0 0 1 -6.61329,6.61328 6.6141731,6.6141731 0 0 1 -6.61328,-6.61328 6.6141731,6.6141731 0 0 1 6.60352,-6.61524 z M 1018.7031,535 a 5.669291,5.669291 0 0 1 0.1543,0.10547 A 5.6698959,5.6698959 0 0 0 1018.7031,535 Z m -3.1953,0.9375 a 3.7795276,3.7795276 0 0 1 0.051,0 3.7795276,3.7795276 0 0 1 3.7793,3.7793 3.7795276,3.7795276 0 0 1 -3.7793,3.77929 3.7795276,3.7795276 0 0 1 -3.7793,-3.77929 3.7795276,3.7795276 0 0 1 3.7285,-3.7793 z m -4.5605,0.48047 a 5.6698959,5.6698959 0 0 0 -0.1055,0.1543 5.669291,5.669291 0 0 1 0.1055,-0.1543 z m 9.3281,6.44336 a 5.669291,5.669291 0 0 1 -0.1055,0.15429 5.6698959,5.6698959 0 0 0 0.1055,-0.15429 z m -8.0156,1.46679 a 5.6698959,5.6698959 0 0 0 0.1543,0.10547 5.669291,5.669291 0 0 1 -0.1543,-0.10547 z m -866.83988,40.55469 a 6.6141717,6.6141717 0 0 1 0.01,0 6.6141717,6.6141717 0 0 1 6.61328,6.61328 6.6141717,6.6141717 0 0 1 -6.61328,6.61524 6.6141717,6.6141717 0 0 1 -6.61524,-6.61524 6.6141717,6.6141717 0 0 1 6.60547,-6.61328 z m 396.9336,0 a 6.6141717,6.6141717 0 0 1 0.01,0 6.6141717,6.6141717 0 0 1 6.61328,6.61328 6.6141717,6.6141717 0 0 1 -6.61328,6.61524 6.6141717,6.6141717 0 0 1 -6.61523,-6.61524 6.6141717,6.6141717 0 0 1 6.60547,-6.61328 z m 63.11718,0 a 6.6141717,6.6141717 0 0 1 0.01,0 6.6141717,6.6141717 0 0 1 6.61328,6.61328 6.6141717,6.6141717 0 0 1 -6.61328,6.61524 6.6141717,6.6141717 0 0 1 -6.61524,-6.61524 6.6141717,6.6141717 0 0 1 6.60547,-6.61328 z m 396.8516,0 a 6.6141717,6.6141717 0 0 1 0.01,0 6.6141717,6.6141717 0 0 1 6.6133,6.61328 6.6141717,6.6141717 0 0 1 -6.6133,6.61524 6.6141717,6.6141717 0 0 1 -6.6152,-6.61524 6.6141717,6.6141717 0 0 1 6.6055,-6.61328 z"
                 transform="scale(0.26458333)" />
            </g>
          </g>
        </g>
      </g>
    </g>
  </g>
</svg>
